# xmcd
#
# Track frame offsets:
# 150
# 19757
# 41523
# 59674
# 80564
# 97472
# 114726
# 129979
# 140076
# 150432
# 167425
# 183239
# 195431
# 222924
# 240640
# 257253
# 278161
# 288195
#
# Disc length: 4136 seconds
#
#
# Revision: 0
# Processed by: cddbd v1.5.1PL0 Copyright (c) Steve Scherf et al.
# Submitted via: FreeRIP 2.941 
#
DISCID=fd102612
DTITLE=King George - I've got the Blues in my Soul
DYEAR=1995
DGENRE=Blues
TTITLE0=Tastelessness of drugs
TTITLE1=Streets of fire
TTITLE2=I am the do-do man
TTITLE3=The freedom I need
TTITLE4=What about will power
TTITLE5=It's fair to say
TTITLE6=Money will buy it
TTITLE7=Working without pay
TTITLE8=Hot like salsa
TTITLE9=Nothing is for anybody
TTITLE10=Me alias King George
TTITLE11=Without ears I hear
TTITLE12=Those sexy ways
TTITLE13=Nightmares are dreams
TTITLE14=The indian in me
TTITLE15=A night in Amsterdam
TTITLE16=After closing time
TTITLE17=Without a word
EXTD=
EXTT0=
EXTT1=
EXTT2=
EXTT3=
EXTT4=
EXTT5=
EXTT6=
EXTT7=
EXTT8=
EXTT9=
EXTT10=
EXTT11=
EXTT12=
EXTT13=
EXTT14=
EXTT15=
EXTT16=
EXTT17=
PLAYORDER=
